<svg xmlns="http://www.w3.org/2000/svg" xml:space="preserve" id="Layer_1" x="0" y="0" style="enable-background:new 0 0 282.4 91" version="1.1" viewBox="0 0 282.4 91"><style>.st0{fill:#585856}</style><path d="M8.4 65.7h5.2c4.1 0 6.1 1.5 6.1 4.6s-2.1 4.6-6.1 4.6H8.4v-9.2zm5.5-7.5H0v32.9h8.4v-8.7h5.5c8.7 0 14.3-4.7 14.3-12.1.1-7.5-5.4-12.1-14.3-12.1m68.7 7.5h5.2c4.1 0 6.1 1.5 6.1 4.6s-2.1 4.6-6.1 4.6h-5.2v-9.2zm19.9 4.6c0-7.5-5.5-12.1-14.3-12.1h-14v32.9h8.4v-8.8h6l6.2 8.8h9.5l-7.6-10.7c3.7-2.1 5.8-5.7 5.8-10.1m5.2-4.6h10V91h8.5V65.7h10v-7.5h-28.5zm57.5 10.4-14.8-17.9h-6.6V91h8.3V73.1L166.9 91h6.7V58.2h-8.4zm28.2 2h14.7v-7.4h-14.7v-5.1H210v-7.4h-25V91h25.6v-7.4h-17.2zm35.1-12.4h5.2c4.1 0 6.1 1.5 6.1 4.6s-2.1 4.6-6.1 4.6h-5.2v-9.2zm19.9 4.6c0-7.5-5.5-12.1-14.3-12.1h-13.9v32.9h8.4v-8.8h6l6.2 8.8h9.5l-7.6-10.7c3.6-2.1 5.7-5.7 5.7-10.1m22.1.7c-3.8-.9-6.1-1.6-6.1-3.1 0-2.4 3.3-2.7 5.2-2.7 2.5 0 5.3.8 7.7 2.2l1.4.8 2.8-6.9-1-.6c-2.8-1.8-6.9-2.9-10.9-2.9-10.1 0-13.6 5.6-13.6 10.4 0 7.4 6.9 9.1 11.9 10.2 3.8.9 6.2 1.6 6.2 3.2 0 2.3-3.7 2.5-5.4 2.5-3.3 0-6.9-1.2-9.2-3l-1.4-1.1-3.1 6.9.8.7c2.8 2.4 7.9 3.9 12.9 3.9 10.1 0 13.7-5.6 13.7-10.3 0-7.4-6.9-9-11.9-10.2" class="st0"/><path d="M92.3 27.5 45.9.8C44-.3 41.6-.3 39.7.8s-3.1 3.1-3.1 5.3v53.6c0 2.2 1.2 4.2 3.1 5.3 1 .6 2 .8 3.1.8s2.1-.3 3.1-.8l46.4-26.8c1.9-1.1 3.1-3.1 3.1-5.3s-1.2-4.3-3.1-5.4" style="fill:#149bd7"/><path d="m49.5 69.3 3.3 7.6h-7.2l3.1-7.1c-1.8 1-3.8 1.5-5.8 1.5-1.1 0-2.1-.1-3.1-.4L30.6 91h8.9l3-7h13.4l3 7h9L56.2 65.5l-6.7 3.8zm-6.8-33.7c-2 0-4 .2-6 .7v23.4c0 2.2 1.2 4.2 3.1 5.3 1 .5 2 .8 3.1.8s2.1-.3 3.1-.8l21.7-12.5c-4.1-9.9-13.7-16.9-25-16.9" class="st0"/><path d="M43.3 30.2c11.2 0 20.8-6.9 24.8-16.6L45.9.8C44-.3 41.6-.3 39.7.8s-3.1 3.1-3.1 5.3v23.2c2.2.6 4.4.9 6.7.9" style="fill:#92c01f"/><path d="M45.1 23.3h7v20.5h-7zm3.5-9.3c-2.3 0-4.1 1.7-4.1 3.9s1.8 3.9 4.1 3.9 4.1-1.7 4.1-4c0-2.2-1.8-3.8-4.1-3.8m17.8 9.1c-1.8 0-3.4.4-4.8 1.1v-.9h-6.8v20.5h7V33.4c0-2.6 1.2-4 3.6-4 1.3 0 2.9.4 2.9 3.3v11h7V32.2c0-5.6-3.4-9.1-8.9-9.1" style="fill:#fff"/><path d="M126.3 26.4 117.5 46h-1.9l-8.8-19.6h2l7.8 17.5 7.9-17.5h1.8zm20.1 10.2h-16.8c0 1.5.4 2.9 1.2 4.1.7 1.2 1.7 2.1 2.9 2.8s2.6 1 4.2 1c1.3 0 2.5-.2 3.5-.7 1.1-.5 2-1.1 2.7-2l1.1 1.2c-.9 1-1.9 1.8-3.2 2.4-1.3.6-2.7.8-4.2.8-1.9 0-3.7-.4-5.2-1.3-1.5-.8-2.7-2-3.6-3.5-.9-1.5-1.3-3.2-1.3-5.1 0-1.9.4-3.6 1.2-5.1s1.9-2.7 3.4-3.5c1.4-.8 3-1.3 4.8-1.3s3.4.4 4.8 1.3c1.4.8 2.5 2 3.3 3.5.8 1.5 1.2 3.2 1.2 5.1v.3zm-13-7.8c-1.1.6-2 1.5-2.6 2.6-.7 1.1-1 2.4-1.1 3.8h15c-.1-1.4-.5-2.6-1.1-3.7-.7-1.1-1.6-2-2.7-2.6-1.1-.6-2.3-.9-3.7-.9-1.5-.1-2.7.2-3.8.8zm19.3 16.6c-1.4-.5-2.5-1.1-3.3-1.8l.9-1.5c.8.7 1.8 1.2 3.1 1.7 1.3.4 2.6.7 4 .7 2 0 3.4-.3 4.4-1 .9-.6 1.4-1.5 1.4-2.7 0-.8-.3-1.5-.8-1.9-.5-.5-1.1-.8-1.9-1-.7-.2-1.8-.5-3.1-.7-1.5-.3-2.8-.6-3.7-.9-1-.3-1.8-.8-2.4-1.6-.7-.7-1-1.7-1-3 0-1.5.6-2.8 1.9-3.8 1.3-1 3.1-1.5 5.5-1.5 1.2 0 2.5.2 3.7.5s2.2.8 3 1.4l-.9 1.5c-.8-.6-1.7-1-2.7-1.3s-2.1-.5-3.1-.5c-1.8 0-3.2.3-4.1 1-.9.7-1.4 1.6-1.4 2.7 0 .9.3 1.6.8 2 .5.5 1.2.9 1.9 1.1.8.2 1.8.5 3.2.8 1.5.3 2.8.6 3.7.9.9.3 1.7.8 2.4 1.5.6.7 1 1.7 1 2.9 0 1.6-.7 2.9-2 3.9s-3.2 1.5-5.7 1.5c-1.9-.2-3.4-.5-4.8-.9zm27.1-.7c-.5.5-1.1.8-1.8 1s-1.5.4-2.2.4c-1.7 0-3-.5-3.9-1.4s-1.4-2.2-1.4-3.9V28h-3.6v-1.6h3.6v-4.3h1.9v4.3h6.2V28h-6.2v12.6c0 1.3.3 2.2.9 2.9.6.7 1.5 1 2.7 1s2.2-.4 3-1.1l.8 1.3zm35.3-16.4c1.4 1.4 2.1 3.5 2.1 6.1v11.4h-1.9V34.6c0-2.2-.5-3.9-1.6-5s-2.6-1.7-4.5-1.7c-2.2 0-3.9.7-5.2 2.1s-1.9 3.2-1.9 5.5v10.4h-1.9V34.6c0-2.2-.5-3.9-1.6-5s-2.6-1.7-4.5-1.7c-2.2 0-3.9.7-5.2 2.1s-1.9 3.2-1.9 5.5v10.4h-1.9V26.4h1.8v4.2c.6-1.4 1.6-2.4 2.9-3.2 1.3-.8 2.8-1.1 4.6-1.1s3.3.4 4.5 1.2 2.1 2 2.6 3.5c.6-1.4 1.7-2.6 3.1-3.4 1.4-.8 3-1.3 4.9-1.3 2.3-.1 4.2.6 5.6 2zm26.4 8.3h-16.8c0 1.5.4 2.9 1.2 4.1.7 1.2 1.7 2.1 2.9 2.8s2.6 1 4.2 1c1.3 0 2.5-.2 3.5-.7 1.1-.5 2-1.1 2.7-2l1.1 1.2c-.9 1-1.9 1.8-3.2 2.4-1.3.6-2.7.8-4.2.8-1.9 0-3.7-.4-5.2-1.3-1.5-.8-2.7-2-3.6-3.5-.9-1.5-1.3-3.2-1.3-5.1 0-1.9.4-3.6 1.2-5.1s1.9-2.7 3.4-3.5c1.4-.8 3-1.3 4.8-1.3s3.4.4 4.8 1.3c1.4.8 2.5 2 3.3 3.5.8 1.5 1.2 3.2 1.2 5.1v.3zm-13-7.8c-1.1.6-2 1.5-2.6 2.6-.7 1.1-1 2.4-1.1 3.8h15c-.1-1.4-.5-2.6-1.1-3.7-.7-1.1-1.6-2-2.7-2.6-1.1-.6-2.3-.9-3.7-.9s-2.7.2-3.8.8zm34.2-.5c1.4 1.4 2.1 3.5 2.1 6.1v11.4h-1.9V34.6c0-2.2-.6-3.9-1.7-5s-2.7-1.7-4.7-1.7c-2.3 0-4.1.7-5.4 2.1-1.3 1.4-2 3.2-2 5.5v10.4h-1.8V26.4h1.8v4.2c.7-1.4 1.7-2.4 3-3.2s2.9-1.2 4.7-1.2c2.5 0 4.5.7 5.9 2.1zm19.6 16.4c-.5.5-1.1.8-1.8 1-.7.2-1.5.4-2.2.4-1.7 0-3-.5-3.9-1.4s-1.4-2.2-1.4-3.9V28h-3.7v-1.6h3.6v-4.3h1.9v4.3h6.2V28h-6.2v12.6c0 1.3.3 2.2.9 2.9s1.5 1 2.7 1 2.2-.4 3-1.1l.9 1.3z" style="fill:#189cd8"/></svg>